REM DIRINDEX 1\8,1\2\11,1\3\12,1\3\14,1\5\15,1\5\16,1\6\17,1\6\18,1\4\19,1\4\20,1\4\21,1\4\22,1\7\23,1\7\24,1\7\25,1\2\9\26,1\2\9\27,1\2\10\28,1\2\10\29,1\2\10\30,1\2\10\31,1\2\10\32,1\3\13\33,1\3\13\34,1\3\13\35
REM DIRNAME folder01,folder02,folder03,folder04,folder05,folder06,folder07,folder08,folder09,folder10,folder11,folder12,folder13,folder14,folder15,folder16,folder17,folder18,folder19,folder20,folder21,folder22,folder23,folder24,folder25,folder26,folder27,folder28,folder29,folder30,folder31,folder32,folder33,folder34,folder35
TITLE ""
FILE "118 118_UNIT7_SET2.mp3" MP3
  TRACK 01 AUDIO
    TITLE "14:cjc123_2406"
    INDEX 01 00:00:00
  TRACK 02 AUDIO
    TITLE "0:"
    INDEX 01 00:02:49
  TRACK 03 AUDIO
    TITLE "33:cjc123_2407"
    INDEX 01 00:03:25
  TRACK 04 AUDIO
    TITLE "0:"
    INDEX 01 00:04:54
  TRACK 05 AUDIO
    TITLE "34:cjc123_2408"
    INDEX 01 00:05:01
  TRACK 06 AUDIO
    TITLE "0:"
    INDEX 01 00:06:10
  TRACK 07 AUDIO
    TITLE "35:cjc123_2409"
    INDEX 01 00:06:59
  TRACK 08 AUDIO
    TITLE "0:"
    INDEX 01 00:11:68
  TRACK 09 AUDIO
    TITLE "33:cjc123_2410"
    INDEX 01 00:12:58
  TRACK 10 AUDIO
    TITLE "0:"
    INDEX 01 00:13:71
  TRACK 11 AUDIO
    TITLE "34:cjc123_2411"
    INDEX 01 00:14:25
  TRACK 12 AUDIO
    TITLE "0:"
    INDEX 01 00:15:44
  TRACK 13 AUDIO
    TITLE "35:cjc123_2412"
    INDEX 01 00:16:18
  TRACK 14 AUDIO
    TITLE "0:"
    INDEX 01 00:19:36
  TRACK 15 AUDIO
    TITLE "33:cjc123_2413"
    INDEX 01 00:20:10
  TRACK 16 AUDIO
    TITLE "0:"
    INDEX 01 00:21:27
  TRACK 17 AUDIO
    TITLE "34:cjc123_2414"
    INDEX 01 00:21:53
  TRACK 18 AUDIO
    TITLE "0:"
    INDEX 01 00:22:70
  TRACK 19 AUDIO
    TITLE "35:cjc123_2415"
    INDEX 01 00:23:42
  TRACK 20 AUDIO
    TITLE "0:"
    INDEX 01 00:29:01
  TRACK 21 AUDIO
    TITLE "33:cjc123_2416"
    INDEX 01 00:29:52
  TRACK 22 AUDIO
    TITLE "0:"
    INDEX 01 00:30:57
  TRACK 23 AUDIO
    TITLE "34:cjc123_2417"
    INDEX 01 00:31:04
  TRACK 24 AUDIO
    TITLE "0:"
    INDEX 01 00:32:11
  TRACK 25 AUDIO
    TITLE "35:cjc123_2418"
    INDEX 01 00:32:64
  TRACK 26 AUDIO
    TITLE "0:"
    INDEX 01 00:36:52
  TRACK 27 AUDIO
    TITLE "33:cjc123_2419"
    INDEX 01 00:37:28
  TRACK 28 AUDIO
    TITLE "0:"
    INDEX 01 00:38:31
  TRACK 29 AUDIO
    TITLE "34:cjc123_2420"
    INDEX 01 00:38:59
  TRACK 30 AUDIO
    TITLE "0:"
    INDEX 01 00:39:54
  TRACK 31 AUDIO
    TITLE "35:cjc123_2421"
    INDEX 01 00:40:24
  TRACK 32 AUDIO
    TITLE "0:"
    INDEX 01 00:45:71
  TRACK 33 AUDIO
    TITLE "33:cjc123_2422"
    INDEX 01 00:46:51
  TRACK 34 AUDIO
    TITLE "0:"
    INDEX 01 00:47:60
  TRACK 35 AUDIO
    TITLE "34:cjc123_2423"
    INDEX 01 00:48:22
  TRACK 36 AUDIO
    TITLE "0:"
    INDEX 01 00:49:29
  TRACK 37 AUDIO
    TITLE "35:cjc123_2424"
    INDEX 01 00:50:11
  TRACK 38 AUDIO
    TITLE "0:"
    INDEX 01 00:54:01
  TRACK 39 AUDIO
    TITLE "33:cjc123_2425"
    INDEX 01 00:54:58
  TRACK 40 AUDIO
    TITLE "0:"
    INDEX 01 00:56:59
  TRACK 41 AUDIO
    TITLE "34:cjc123_2426"
    INDEX 01 00:57:17
  TRACK 42 AUDIO
    TITLE "0:"
    INDEX 01 00:59:16
  TRACK 43 AUDIO
    TITLE "35:cjc123_2427"
    INDEX 01 00:59:69
  TRACK 44 AUDIO
    TITLE "0:"
    INDEX 01 01:03:49
  TRACK 45 AUDIO
    TITLE "33:cjc123_2428"
    INDEX 01 01:04:31
  TRACK 46 AUDIO
    TITLE "0:"
    INDEX 01 01:05:40
  TRACK 47 AUDIO
    TITLE "34:cjc123_2429"
    INDEX 01 01:05:69
  TRACK 48 AUDIO
    TITLE "0:"
    INDEX 01 01:07:06
  TRACK 49 AUDIO
    TITLE "35:cjc123_2430"
    INDEX 01 01:07:57
  TRACK 50 AUDIO
    TITLE "0:"
    INDEX 01 01:11:60
  TRACK 51 AUDIO
    TITLE "33:cjc123_2431"
    INDEX 01 01:12:30
  TRACK 52 AUDIO
    TITLE "0:"
    INDEX 01 01:13:53
  TRACK 53 AUDIO
    TITLE "34:cjc123_2432"
    INDEX 01 01:13:71
  TRACK 54 AUDIO
    TITLE "0:"
    INDEX 01 01:15:11
  TRACK 55 AUDIO
    TITLE "35:cjc123_2433"
    INDEX 01 01:15:54
  TRACK 56 AUDIO
    TITLE "0:"
    INDEX 01 01:19:66
  TRACK 57 AUDIO
    TITLE "33:cjc123_2434"
    INDEX 01 01:20:42
  TRACK 58 AUDIO
    TITLE "0:"
    INDEX 01 01:21:39
  TRACK 59 AUDIO
    TITLE "34:cjc123_2435"
    INDEX 01 01:21:63
  TRACK 60 AUDIO
    TITLE "0:"
    INDEX 01 01:22:70
  TRACK 61 AUDIO
    TITLE "35:cjc123_2436"
    INDEX 01 01:23:42
  TRACK 62 AUDIO
    TITLE "0:"
    INDEX 01 01:28:24
  TRACK 63 AUDIO
    TITLE "33:cjc123_2437"
    INDEX 01 01:28:71
  TRACK 64 AUDIO
    TITLE "0:"
    INDEX 01 01:30:58
  TRACK 65 AUDIO
    TITLE "34:cjc123_2438"
    INDEX 01 01:31:14
  TRACK 66 AUDIO
    TITLE "0:"
    INDEX 01 01:32:62
  TRACK 67 AUDIO
    TITLE "35:cjc123_2439"
    INDEX 01 01:33:34
  TRACK 68 AUDIO
    TITLE "0:"
    INDEX 01 01:37:01
  TRACK 69 AUDIO
    TITLE "33:cjc123_2440"
    INDEX 01 01:37:54
  TRACK 70 AUDIO
    TITLE "0:"
    INDEX 01 01:38:63
  TRACK 71 AUDIO
    TITLE "34:cjc123_2441"
    INDEX 01 01:39:10
  TRACK 72 AUDIO
    TITLE "0:"
    INDEX 01 01:40:15
  TRACK 73 AUDIO
    TITLE "35:cjc123_2442"
    INDEX 01 01:40:64
  TRACK 74 AUDIO
    TITLE "0:"
    INDEX 01 01:47:05
  TRACK 75 AUDIO
    TITLE "33:cjc123_2443"
    INDEX 01 01:47:58
  TRACK 76 AUDIO
    TITLE "0:"
    INDEX 01 01:48:48
  TRACK 77 AUDIO
    TITLE "34:cjc123_2444"
    INDEX 01 01:48:63
  TRACK 78 AUDIO
    TITLE "0:"
    INDEX 01 01:49:61
  TRACK 79 AUDIO
    TITLE "35:cjc123_2445"
    INDEX 01 01:50:41
  TRACK 80 AUDIO
    TITLE "0:"
    INDEX 01 01:56:37
  TRACK 81 AUDIO
    TITLE "33:cjc123_2446"
    INDEX 01 01:57:09
  TRACK 82 AUDIO
    TITLE "0:"
    INDEX 01 01:58:19
  TRACK 83 AUDIO
    TITLE "34:cjc123_2447"
    INDEX 01 01:58:46
  TRACK 84 AUDIO
    TITLE "0:"
    INDEX 01 01:59:61
  TRACK 85 AUDIO
    TITLE "35:cjc123_2448"
    INDEX 01 02:00:39
  TRACK 86 AUDIO
    TITLE "0:"
    INDEX 01 02:04:39
  TRACK 87 AUDIO
    TITLE "33:cjc123_2449"
    INDEX 01 02:05:13
  TRACK 88 AUDIO
    TITLE "0:"
    INDEX 01 02:06:32
  TRACK 89 AUDIO
    TITLE "34:cjc123_2450"
    INDEX 01 02:06:54
  TRACK 90 AUDIO
    TITLE "0:"
    INDEX 01 02:07:69
  TRACK 91 AUDIO
    TITLE "35:cjc123_2451"
    INDEX 01 02:08:39
  TRACK 92 AUDIO
    TITLE "0:"
    INDEX 01 02:12:27
